<?xml version="1.0" standalone="no"?><!DOCTYPE svg PUBLIC "-//W3C//DTD SVG 1.1//EN" "http://www.w3.org/Graphics/SVG/1.1/DTD/svg11.dtd"><svg t="1736004168307" class="icon" viewBox="0 0 1024 1024" version="1.1" xmlns="http://www.w3.org/2000/svg" p-id="20535" xmlns:xlink="http://www.w3.org/1999/xlink" width="200" height="200"><path d="M222.13389443 263.21740704c78.86920912-18.85308003 164.25745983-2.82796201 233.77819245 37.94182358 51.53224307 31.10758207 96.3863717 71.64170414 143.59713533 108.56281018-26.07911212 17.67476253-51.92403364 35.58518857-78.31834569 52.78862411-48.23295406-36.37024261-92.69381922-80.83258066-151.06030378-100.8639782-53.57367813-18.45981658-116.1040422-21.20971504-167.00735833 6.83424151-52.15969714 27.65069309-87.98054922 84.44559669-87.90248565 143.83279881-1.57010806 59.62286562 33.38615354 117.43995967 85.07452366 146.42657022 55.69612255 32.05023607 126.78696325 27.80829306 183.42573979 0.47132701 70.14818672-34.32880754 118.30307723-98.90060667 161.50756136-161.74469774 46.42570958-72.11303115 87.74488571-147.36775133 132.99227779-220.18777299 9.89786702-18.45981658 33.15049005-28.35768357 53.02428759-20.81645157 18.46128947 5.89158752 26.39431205 24.98033105 35.19339802 40.45458566 69.91252321 126.07997275 140.69110977 251.61055498 211.46822346 377.14113716 11.07618453 20.10946107 27.25890252 41.00544908 20.424661 65.51445314-5.18459701 30.24299159-45.40499205 40.61218562-68.34241514 23.56635004-97.56468919-72.2706311-195.60070539-144.06993522-293.0092675-216.73235689 24.11721347-20.1889975 51.45417953-36.13457909 77.14150107-54.20260511 33.77794411 25.05839459 67.55588819 50.1963256 101.49143229 75.01905667-32.44202663-60.17225614-67.16409763-119.01006774-99.99938774-178.94666038-62.76455466 97.32902569-113.9830707 204.39831843-198.8999944 285.2308991-60.95878309 60.56551963-145.01111632 101.96423217-232.44227499 97.17289863-135.58604919 6.20531455-258.36673294-116.02597867-257.18841545-250.90356446-5.65592402-117.36042323 81.06824416-229.77191295 195.05131486-256.55948848z" p-id="20536"></path></svg>