<?xml version="1.0" standalone="no"?><!DOCTYPE svg PUBLIC "-//W3C//DTD SVG 1.1//EN" "http://www.w3.org/Graphics/SVG/1.1/DTD/svg11.dtd"><svg t="1736004560394" class="icon" viewBox="0 0 1024 1024" version="1.1" xmlns="http://www.w3.org/2000/svg" p-id="21106" xmlns:xlink="http://www.w3.org/1999/xlink" width="200" height="200"><path d="M813.2864 234.5216h-53.0176l46.3872-46.3872c19.8912-19.8912 19.8912-59.648 0-79.5136s-59.648-19.8912-79.5136 0l-132.5312 125.9008h-159.0272l-132.5312-125.9008c-19.8912-19.8912-59.648-19.8912-79.5136 0s-19.8912 59.648 0 79.5136l46.3872 46.3872H216.9088c-92.7744 0-165.6576 72.8832-165.6576 165.6576v357.8112c0 99.4048 72.8832 172.288 165.6576 172.288h589.7216c92.7744 0 165.6576-72.8832 165.6576-165.6576V400.1792c6.6304-92.7744-66.2528-165.6576-159.0272-165.6576z m46.3872 523.4688a59.392 59.392 0 0 1-59.648 59.648H223.5392a59.392 59.392 0 0 1-59.648-59.648V406.8096a59.392 59.392 0 0 1 59.648-59.648h576.4864a59.392 59.392 0 0 1 59.648 59.648v351.1808z m-516.864-291.5328a59.392 59.392 0 0 0-59.648 59.648v59.648c0 33.1264 26.496 59.648 59.648 59.648s59.648-26.496 59.648-59.648v-59.648a59.392 59.392 0 0 0-59.648-59.648z m344.576 0a59.392 59.392 0 0 0-59.648 59.648v59.648c0 33.1264 26.496 59.648 59.648 59.648s59.648-26.496 59.648-59.648v-59.648a59.392 59.392 0 0 0-59.648-59.648z" p-id="21107"></path></svg>